<svg version="1" xmlns="http://www.w3.org/2000/svg" width="466.667" height="341.333" viewBox="0 0 350.000000 256.000000"><path d="M176.5 11c-10.5 2.4-26.5 8.3-34 12.7-7 4.1-13.5 9.1-13.5 10.4 0 .5 15.3 1 35.7 1.1l35.7.3 6.5 8.8 6.4 8.9-1.3 10.1C210 79 211 78 197.9 78h-11.2l.6-5.9c.4-3.3.9-7.8 1.3-10l.7-4.1h-57.1l-.6 2.7c-2.5 12.5-8.5 57.8-7.8 58.5.5.5 4.9.8 9.8.6l8.8-.3 1.6-10.8c.9-5.9 1.4-11 1.1-11.2-.2-.3-1.9-.5-3.8-.5-2.9 0-3.3-.3-2.9-2.3.3-1.2 1-5.5 1.6-9.5l1.2-7.2h31.9l-.6 3.2c-2.4 14.1-5.4 37.1-5 37.9.4.5 3.2.9 6.4.9 6.7 0 5.7 1.7 8.2-14.3l1.2-7.7h23.6l-.5 3.2c-.2 1.8-1.1 7.8-1.9 13.3l-1.5 10-9.8 9.2-9.7 9.2-10.1.1h-10.2l-1.1 7.5c-.6 4.2-1.1 8.2-1.1 9 0 1.3 3.7 1.5 24.5 1.5 13.5 0 24.5-.2 24.5-.4 0-.8 11-76.1 11.6-79.4l.6-3.2h31.9l-.5 3.2c-.3 1.8-1 6-1.6 9.2-.5 3.3-1 6.1-1 6.2 0 .2-1.7.4-3.7.6l-3.8.3-5.1 34.5-5.2 34.5-9.2 8.8-9.2 8.7h-13.7c-11.8 0-14 .3-16.8 2-4.4 2.6-9 9.3-10.8 15.4-1.5 5-3.4 20.8-3.5 27.5 0 3.3 0 3.4 3.8 2.7 2-.3 8.2-1.1 13.7-1.6 14.8-1.4 16.7-2.2 25.6-10.6 4.4-4.1 9.9-8.4 12.2-9.5 7.5-3.8 18.1-12.6 23.7-19.8 3-3.9 6.1-7.1 6.7-7.1.7 0 2.1 1.7 3.2 3.8 2.2 4.1 7.7 10.2 9.2 10.2.6 0 4.1-1.8 7.7-3.9 3.7-2.2 8.5-4.2 10.7-4.6 3.5-.6 6.3-3 22.6-19.4 21.5-21.5 27.8-30.1 30.3-41.1 1.8-7.9 2.1-18.3.6-26.1-1.3-7-7.7-19.8-13.5-27.2-9.8-12.3-30.3-21.7-47.7-21.7-6.7 0-8.9-1.3-13.8-8.7-8-11.7-22.5-23.7-35.1-28.8-15.5-6.2-37.5-8.1-53.4-4.5zM298 100c-2.2 4.3-5.3 12.6-7 18.2-3.2 11.3-5.1 13.8-10.5 13.8-9.9 0-9.2-14.6 1.2-26.1 3.3-3.7 17.7-13.9 19.5-13.9.5 0-1 3.6-3.2 8z"/><path d="M94 66.4c-16.1 4.9-27.3 10.9-33.8 18.1L57 88H46c-6.4 0-11 .4-11 1 0 1.6 5.1 5.7 10.1 8.1 5 2.3 5.9 4.1 3.9 7.9-1.8 3.4-3.2 20.2-2.2 26 .6 2.9.8 5.9.6 6.4-.2.6-2.9 2.4-6 4-3.8 2-6.9 4.7-9.6 8.3-3.7 4.9-4.1 6-4.9 13.9-.9 9-1.9 11.2-8.6 20.6-1.9 2.6-4.5 7.9-5.8 11.9-1.4 3.9-3 7.8-3.6 8.5-1.8 2.2-.4 11.4 2.6 17.5 4.9 9.8 14.7 24.9 16.1 24.9 1.4 0 9.3-7.2 11-10 .5-.8 3.1-3.3 5.8-5.4 8-6.5 9.7-11.5 11.5-35.1 1-12.3 2.3-16 6.2-18 3.2-1.7 7-.9 18 4.1 10.3 4.6 19.5 5.8 34.6 4.5 15.3-1.4 31.4-6.4 29.6-9.4-.4-.7-2.4-3.4-4.5-6-2.1-2.7-3.8-5.9-3.8-7 0-2 1.1-9.8 2.5-18.5l.6-3.2h-26l-7.5-8.9c-4.2-4.9-7.6-9.8-7.6-10.9 0-1.1 1.8-14 4-28.6 2.2-14.6 4-27.4 4-28.6 0-2.6-2.3-2.5-12 .4z"/></svg>